<svg xmlns="http://www.w3.org/2000/svg" xmlns:xlink="http://www.w3.org/1999/xlink" version="1.1" id="Layer_1" x="0px" y="0px" style="enable-background:new 0 0 1200 769;" xml:space="preserve" viewBox="314.24 308.73 571.53 151.54">
<style type="text/css">
	.st0{fill:#ffffff;}
	.st1{fill:#ffffff;}
	.st2{fill:#ffffff;}
	.st3{fill:#ffffff;}
	.st4{fill:#ffffff;}
	.st5{fill:#ffffff;}
	.st6{fill:#ffffff;}
	.st7{fill:#ffffff;}
	.st8{fill:#ffffff;}
	.st9{fill:#ffffff;}
	.st10{fill:#ffffff;}
	.st11{fill:#ffffff;}
	.st12{fill:#ffffff;}
	.st13{fill:#ffffff;}
</style>
<g>
	<g>
		<linearGradient id="SVGID_1_" gradientUnits="userSpaceOnUse" x1="429.8336" y1="386.2581" x2="715.501" y2="379.7161">
			<stop offset="0" style="stop-color:#7DD3F5"/>
			<stop offset="0.2706" style="stop-color:#90BFE7"/>
			<stop offset="0.5129" style="stop-color:#9997CA"/>
			<stop offset="0.7809" style="stop-color:#A68CC1"/>
			<stop offset="1" style="stop-color:#BA529F"/>
		</linearGradient>
		<path class="st0" d="M513.31,410.34h-2.16l-11.98-34.68l-11.19,34.68h-2.16l-15.86-50.99h7.14l10.1,35.13l11.06-35.13h2.4    l10.92,35.06l10.27-35.06h7.14L513.31,410.34z"/>
		<linearGradient id="SVGID_2_" gradientUnits="userSpaceOnUse" x1="429.856" y1="387.2376" x2="715.5234" y2="380.6956">
			<stop offset="0" style="stop-color:#7DD3F5"/>
			<stop offset="0.2706" style="stop-color:#90BFE7"/>
			<stop offset="0.5129" style="stop-color:#9997CA"/>
			<stop offset="0.7809" style="stop-color:#A68CC1"/>
			<stop offset="1" style="stop-color:#BA529F"/>
		</linearGradient>
		<path class="st1" d="M541.43,365.53v13.98h16.62v5.84h-16.62v18.13h22.8v6.18h-29.67v-50.31h30.05v6.18H541.43z"/>
		<linearGradient id="SVGID_3_" gradientUnits="userSpaceOnUse" x1="429.8699" y1="387.8437" x2="715.5373" y2="381.3017">
			<stop offset="0" style="stop-color:#7DD3F5"/>
			<stop offset="0.2706" style="stop-color:#90BFE7"/>
			<stop offset="0.5129" style="stop-color:#9997CA"/>
			<stop offset="0.7809" style="stop-color:#A68CC1"/>
			<stop offset="1" style="stop-color:#BA529F"/>
		</linearGradient>
		<path class="st2" d="M586.59,409.65h-14.35v-50.31c6.11-0.3,10.52-0.45,13.22-0.45c4.97,0,8.81,1.07,11.54,3.21    c2.72,2.14,4.09,5.2,4.09,9.19c0,2.34-0.87,4.46-2.61,6.39c-1.74,1.92-3.66,3.13-5.77,3.61c3.98,0.96,6.89,2.55,8.71,4.77    c1.82,2.22,2.73,5.24,2.73,9.07c0,4.42-1.62,7.94-4.86,10.58C596.04,408.34,591.81,409.65,586.59,409.65z M579.1,364.84v14.46    c1.44,0.14,3.23,0.21,5.36,0.21c6.5,0,9.75-2.64,9.75-7.93c0-4.65-2.99-6.97-8.96-6.97C582.96,364.6,580.91,364.68,579.1,364.84z     M579.1,384.62v19.2c2.36,0.23,4.17,0.34,5.43,0.34c4.3,0,7.45-0.81,9.43-2.42c1.98-1.61,2.97-4.18,2.97-7.71    c0-3.27-0.94-5.69-2.83-7.25c-1.89-1.56-5.04-2.33-9.46-2.33L579.1,384.62z"/>
		<linearGradient id="SVGID_4_" gradientUnits="userSpaceOnUse" x1="429.9019" y1="389.2381" x2="715.5693" y2="382.6961">
			<stop offset="0" style="stop-color:#7DD3F5"/>
			<stop offset="0.2706" style="stop-color:#90BFE7"/>
			<stop offset="0.5129" style="stop-color:#9997CA"/>
			<stop offset="0.7809" style="stop-color:#A68CC1"/>
			<stop offset="1" style="stop-color:#BA529F"/>
		</linearGradient>
		<path class="st3" d="M643.35,409.65h-10.13v-50.31c6.46-0.23,10.59-0.34,12.4-0.34c7.03,0,12.59,2.13,16.69,6.4    c4.1,4.27,6.15,9.95,6.15,17.05C668.46,400.59,660.09,409.65,643.35,409.65z M640.09,365.53v37.6c1.53,0.23,3.43,0.34,5.7,0.34    c4.81,0,8.59-1.8,11.33-5.41c2.75-3.61,4.12-8.61,4.12-15.02c0-11.9-5.35-17.86-16.04-17.86    C644.57,365.18,642.86,365.3,640.09,365.53z"/>
		<linearGradient id="SVGID_5_" gradientUnits="userSpaceOnUse" x1="429.9304" y1="390.4831" x2="715.5978" y2="383.941">
			<stop offset="0" style="stop-color:#7DD3F5"/>
			<stop offset="0.2706" style="stop-color:#90BFE7"/>
			<stop offset="0.5129" style="stop-color:#9997CA"/>
			<stop offset="0.7809" style="stop-color:#A68CC1"/>
			<stop offset="1" style="stop-color:#BA529F"/>
		</linearGradient>
		<path class="st4" d="M683.22,365.53v13.98h16.62v5.84h-16.62v18.13h22.8v6.18h-29.67v-50.31h30.05v6.18H683.22z"/>
		<linearGradient id="SVGID_6_" gradientUnits="userSpaceOnUse" x1="429.9479" y1="391.2469" x2="715.6152" y2="384.7049">
			<stop offset="0" style="stop-color:#7DD3F5"/>
			<stop offset="0.2706" style="stop-color:#90BFE7"/>
			<stop offset="0.5129" style="stop-color:#9997CA"/>
			<stop offset="0.7809" style="stop-color:#A68CC1"/>
			<stop offset="1" style="stop-color:#BA529F"/>
		</linearGradient>
		<path class="st5" d="M711.76,407.35l2.51-6.32c1.28,0.94,2.88,1.72,4.79,2.35c1.91,0.63,3.62,0.94,5.13,0.94    c2.68,0,4.83-0.73,6.46-2.2c1.63-1.46,2.44-3.33,2.44-5.6c0-1.69-0.45-3.27-1.36-4.72c-0.9-1.45-3.18-3.04-6.82-4.76l-4.05-1.89    c-3.43-1.6-5.83-3.5-7.19-5.7c-1.36-2.2-2.04-4.84-2.04-7.93c0-3.75,1.33-6.87,3.98-9.34c2.66-2.47,6.07-3.71,10.23-3.71    c5.56,0,9.43,0.9,11.61,2.71l-2.03,5.98c-0.92-0.66-2.31-1.31-4.19-1.92c-1.88-0.62-3.62-0.93-5.22-0.93    c-2.33,0-4.17,0.67-5.51,1.99c-1.34,1.33-2.01,3.03-2.01,5.12c0,1.28,0.24,2.45,0.72,3.5c0.48,1.05,1.15,1.93,2.01,2.64    s2.62,1.71,5.27,2.99l4.12,1.96c3.43,1.63,5.84,3.57,7.23,5.82c1.39,2.25,2.08,5.12,2.08,8.6c0,3.78-1.52,6.98-4.55,9.62    c-3.03,2.63-7.09,3.95-12.17,3.95C718.73,410.51,714.92,409.46,711.76,407.35z"/>
		<linearGradient id="SVGID_7_" gradientUnits="userSpaceOnUse" x1="429.9625" y1="391.8861" x2="715.6299" y2="385.3441">
			<stop offset="0" style="stop-color:#7DD3F5"/>
			<stop offset="0.2706" style="stop-color:#90BFE7"/>
			<stop offset="0.5129" style="stop-color:#9997CA"/>
			<stop offset="0.7809" style="stop-color:#A68CC1"/>
			<stop offset="1" style="stop-color:#BA529F"/>
		</linearGradient>
		<path class="st6" d="M749.05,409.65v-50.31h6.87v50.31H749.05z"/>
		<linearGradient id="SVGID_8_" gradientUnits="userSpaceOnUse" x1="429.9814" y1="392.7093" x2="715.6487" y2="386.1673">
			<stop offset="0" style="stop-color:#7DD3F5"/>
			<stop offset="0.2706" style="stop-color:#90BFE7"/>
			<stop offset="0.5129" style="stop-color:#9997CA"/>
			<stop offset="0.7809" style="stop-color:#A68CC1"/>
			<stop offset="1" style="stop-color:#BA529F"/>
		</linearGradient>
		<path class="st7" d="M802.28,362.85l-2.85,5.67c-3.46-2.56-6.85-3.85-10.16-3.85c-5.27,0-9.42,1.85-12.47,5.56    c-3.05,3.71-4.57,8.62-4.57,14.73c0,5.81,1.49,10.5,4.48,14.04c2.99,3.55,7.06,5.32,12.21,5.32c3.66,0,6.63-1.1,8.89-3.3v-11.78    h-6.97v-5.84h13.84v21.91c-1.83,1.56-4.38,2.81-7.66,3.76c-3.27,0.95-6.46,1.42-9.55,1.42c-6.94,0-12.41-2.35-16.43-7.06    c-4.02-4.7-6.03-10.96-6.03-18.77c0-7.78,2.2-14.1,6.61-18.94c4.41-4.84,10.35-7.26,17.84-7.26    C794.72,358.49,798.98,359.94,802.28,362.85z"/>
		<linearGradient id="SVGID_9_" gradientUnits="userSpaceOnUse" x1="430.0122" y1="394.0553" x2="715.6796" y2="387.5133">
			<stop offset="0" style="stop-color:#7DD3F5"/>
			<stop offset="0.2706" style="stop-color:#90BFE7"/>
			<stop offset="0.5129" style="stop-color:#9997CA"/>
			<stop offset="0.7809" style="stop-color:#A68CC1"/>
			<stop offset="1" style="stop-color:#BA529F"/>
		</linearGradient>
		<path class="st8" d="M847.51,410.34l-26-36.78v36.09h-6.52v-50.31h2.75l25.31,34.79v-34.79h6.52v50.99H847.51z"/>
		<linearGradient id="SVGID_10_" gradientUnits="userSpaceOnUse" x1="430.0243" y1="394.5851" x2="715.6917" y2="388.0432">
			<stop offset="0" style="stop-color:#7DD3F5"/>
			<stop offset="0.2706" style="stop-color:#90BFE7"/>
			<stop offset="0.5129" style="stop-color:#9997CA"/>
			<stop offset="0.7809" style="stop-color:#A68CC1"/>
			<stop offset="1" style="stop-color:#BA529F"/>
		</linearGradient>
		<path class="st9" d="M857.6,407.35l2.51-6.32c1.28,0.94,2.88,1.72,4.79,2.35c1.91,0.63,3.62,0.94,5.13,0.94    c2.68,0,4.83-0.73,6.46-2.2c1.62-1.46,2.44-3.33,2.44-5.6c0-1.69-0.45-3.27-1.36-4.72c-0.9-1.45-3.18-3.04-6.82-4.76l-4.05-1.89    c-3.43-1.6-5.83-3.5-7.19-5.7c-1.36-2.2-2.04-4.84-2.04-7.93c0-3.75,1.33-6.87,3.98-9.34c2.66-2.47,6.07-3.71,10.23-3.71    c5.56,0,9.43,0.9,11.61,2.71l-2.03,5.98c-0.92-0.66-2.31-1.31-4.19-1.92c-1.88-0.62-3.62-0.93-5.22-0.93    c-2.33,0-4.17,0.67-5.51,1.99c-1.34,1.33-2.01,3.03-2.01,5.12c0,1.28,0.24,2.45,0.72,3.5c0.48,1.05,1.15,1.93,2.01,2.64    s2.62,1.71,5.27,2.99l4.12,1.96c3.43,1.63,5.84,3.57,7.23,5.82c1.39,2.25,2.08,5.12,2.08,8.6c0,3.78-1.52,6.98-4.55,9.62    c-3.03,2.63-7.09,3.95-12.17,3.95C864.58,410.51,860.76,409.46,857.6,407.35z"/>
	</g>
	<g>
		<linearGradient id="SVGID_11_" gradientUnits="userSpaceOnUse" x1="321.7754" y1="382.8785" x2="443.0659" y2="382.8785">
			<stop offset="0" style="stop-color:#7DD3F5"/>
			<stop offset="0.2706" style="stop-color:#90BFE7"/>
			<stop offset="0.5129" style="stop-color:#9997CA"/>
			<stop offset="0.7809" style="stop-color:#A68CC1"/>
			<stop offset="1" style="stop-color:#BA529F"/>
		</linearGradient>
		<path class="st10" d="M428.38,408.93l7.55,2.5c4.55-8.51,7.13-18.23,7.13-28.56c0-33.49-27.15-60.65-60.65-60.65    c-33.49,0-60.65,27.15-60.65,60.65c0,33.49,27.15,60.65,60.65,60.65c20.74,0,39.05-10.42,49.99-26.3L428.38,408.93z     M371.95,363.81c0,16.17,0,32.34,0,48.51c0,0.36,0,0.72,0,1.2c-3.35,0-6.57,0-9.97,0c0-0.5,0-0.96,0-1.41c0-16.13,0-32.27,0-48.4    c0-1.62,0-1.61-1.58-1.61c-7.63,0-15.26,0-22.89,0c-0.36,0-0.72,0-1.17,0c0-3.32,0-6.56,0-9.87c0.35-0.03,0.67-0.08,0.98-0.08    c23.76,0,47.52-0.1,71.28,0.08c7.58,0.06,14.12,3.25,19.62,8.48c0.08,0.07,0.13,0.17,0.18,0.24c-2.33,2.3-4.64,4.59-7.05,6.97    c-0.29-0.23-0.72-0.55-1.12-0.89c-3.94-3.31-8.49-4.92-13.62-4.93c-10.97-0.01-21.94,0-32.92,0    C371.95,362.1,371.95,362.1,371.95,363.81z M422.38,409.39c-13.7,7.86-30.38,4.56-39.99-7.94c-7.72-10.03-8.3-23.79-1.85-34.44    c0.19-0.31,0.63-0.67,0.96-0.67c4.17-0.05,8.35-0.03,12.75-0.03c-10.46,8.65-9.8,21.95-3.36,29.76    c6.65,8.07,20.54,11.13,30.49,1.73c2.31,2.33,4.62,4.67,7.14,7.21C426.52,406.45,424.57,408.13,422.38,409.39z"/>
		<linearGradient id="SVGID_12_" gradientUnits="userSpaceOnUse" x1="431.0487" y1="418.971" x2="448.1697" y2="418.971">
			<stop offset="0" style="stop-color:#7DD3F5"/>
			<stop offset="0.2706" style="stop-color:#90BFE7"/>
			<stop offset="0.5129" style="stop-color:#9997CA"/>
			<stop offset="0.7809" style="stop-color:#A68CC1"/>
			<stop offset="1" style="stop-color:#BA529F"/>
		</linearGradient>
		<polygon class="st11" points="431.05,411.35 438.46,426.6 441.02,421.6 446.72,426.6 448.17,424.92 442.35,419.94 447.18,416.69       "/>
	</g>
	<g>
		<linearGradient id="SVGID_13_" gradientUnits="userSpaceOnUse" x1="314.2366" y1="310.5811" x2="885.7634" y2="310.5811">
			<stop offset="0" style="stop-color:#7DD3F5"/>
			<stop offset="0.2706" style="stop-color:#90BFE7"/>
			<stop offset="0.5129" style="stop-color:#9997CA"/>
			<stop offset="0.7809" style="stop-color:#A68CC1"/>
			<stop offset="1" style="stop-color:#BA529F"/>
		</linearGradient>
		<rect x="314.24" y="308.73" class="st12" width="571.53" height="3.7"/>
		<linearGradient id="SVGID_14_" gradientUnits="userSpaceOnUse" x1="314.2366" y1="458.4189" x2="885.7634" y2="458.4189">
			<stop offset="0" style="stop-color:#7DD3F5"/>
			<stop offset="0.2706" style="stop-color:#90BFE7"/>
			<stop offset="0.5129" style="stop-color:#9997CA"/>
			<stop offset="0.7809" style="stop-color:#A68CC1"/>
			<stop offset="1" style="stop-color:#BA529F"/>
		</linearGradient>
		<rect x="314.24" y="456.57" class="st13" width="571.53" height="3.7"/>
	</g>
</g>
</svg>