<svg xmlns="http://www.w3.org/2000/svg" viewBox="0 0 5023.31 932.08"><g id="Layer_2" data-name="Layer 2"><g id="Layer_1-2" data-name="Layer 1"><path d="M1121,214.46h128.2q65.63,0,95.76,30.5t30.12,93.84v21.62q0,41.71-13.51,68t-41.32,37.85v1.54q63.32,21.63,63.33,112.75v46.34q0,62.57-32.82,95.38t-96.15,32.82H1121Zm118.16,220.1q25.49,0,38.23-13.13t12.74-44V347.29q0-29.34-10.42-42.47t-32.83-13.13h-40.93V434.56Zm15.45,243.27q22.38,0,33.2-12t10.82-41.31V577.44q0-37.08-12.75-51.36t-42.09-14.29h-37.84v166Z"/><path d="M1451.52,731.12q-23.94-31.65-23.94-91.9V582.84q0-42.47,14.68-71.05t47.88-41.7v-1.55q-30.12-12.35-44.41-39.77t-14.29-70.67v-10q0-65.64,31.67-99.63t95-34h97.31v77.23h-95.77q-20.85,0-32.05,12.36T1516.4,344.2v33.21q0,30.9,12.74,44t38.23,13.13h33.21V374.32H1684v60.24h23.94v77.23H1684V689.42a360,360,0,0,0,1.55,37.45,93.21,93.21,0,0,0,7.72,28.19h-85q-6.19-17-7.72-42.47H1599q-13.9,25.49-32,37.84t-45.18,12.36Q1475.47,762.79,1451.52,731.12Zm149.06-94.22V511.79h-32.44q-29.36,0-42.48,15.83t-13.13,52.9v54.84q0,27,10.82,38.61t30.12,11.59Q1593.61,685.56,1600.58,636.9Z"/><path d="M1755,214.46h125.88q65.64,0,95.77,30.5t30.11,93.84V372q0,84.18-55.6,106.57v1.55q30.88,9.27,43.63,37.84t12.75,76.46v95a360.39,360.39,0,0,0,1.54,37.45,93.79,93.79,0,0,0,7.72,28.19h-86.49a123.77,123.77,0,0,1-6.18-24.71q-1.56-11.58-1.54-41.7V589.79q0-37.06-12-51.74t-41.31-14.67H1840V755.06h-85Zm115.84,231.69q25.49,0,38.23-13.13t12.74-44V347.29q0-29.34-10.42-42.47t-32.83-13.13H1840V446.15Z"/><path d="M2083.25,727.65q-31.68-35.14-31.66-100.79V596h80.32V633q0,52.53,44,52.52,21.6,0,32.82-12.75T2220,631.5q0-34-15.45-59.86t-57.15-62.17q-52.53-46.34-73.37-83.79t-20.85-84.57q0-64.08,32.44-99.23t94.22-35.14q61,0,92.29,35.14t31.27,100.78v22.4H2223V337.25q0-27.79-10.82-40.54T2180.56,284q-42.48,0-42.48,51.74a102,102,0,0,0,15.84,54.83q15.81,25.48,57.53,61.78,53.3,46.35,73.37,84.18t20.08,88.82q0,66.42-32.82,101.94t-95.38,35.53Q2114.9,762.79,2083.25,727.65Z"/><path d="M2353.55,214.46h231.69v77.23H2438.5V434.56h116.62v77.23H2438.5v166h146.74v77.23H2353.55Z"/><path d="M2633.88,214.46h125.89q65.63,0,95.76,30.5t30.12,93.84V372q0,84.18-55.6,106.57v1.55q30.87,9.27,43.63,37.84t12.74,76.46v95a360,360,0,0,0,1.55,37.45,93.21,93.21,0,0,0,7.72,28.19h-86.5a123,123,0,0,1-6.17-24.71q-1.56-11.58-1.55-41.7V589.79q0-37.06-12-51.74t-41.32-14.67h-29.34V755.06h-85Zm115.85,231.69q25.48,0,38.23-13.13t12.74-44V347.29q0-29.34-10.43-42.47t-32.82-13.13h-38.61V446.15Z"/><path d="M2919.63,214.46h85.73L3061,633.81h1.55l55.6-419.35h78l-81.86,540.6H3001.49Z"/><path d="M3237,214.46H3322v540.6H3237Z"/><path d="M3412,728q-32.05-34.75-32-98.08V339.57q0-63.31,32-98.08T3505,206.74q61,0,93.06,34.75t32,98.08v57.15H3549.8V334.16q0-50.19-42.47-50.19t-42.48,50.19v302q0,49.44,42.48,49.43t42.47-49.43V553.49h80.32V630q0,63.33-32,98.08T3505,762.79Q3444,762.79,3412,728Z"/><path d="M3681.09,214.46h231.69v77.23H3766V434.56h116.62v77.23H3766v166h146.74v77.23H3681.09Z"/><path d="M3980,727.65q-31.68-35.14-31.67-100.79V596h80.32V633q0,52.53,44,52.52,21.61,0,32.82-12.75t11.2-41.31q0-34-15.44-59.86t-57.15-62.17q-52.53-46.34-73.37-83.79t-20.85-84.57q0-64.08,32.44-99.23t94.21-35.14q61,0,92.29,35.14t31.28,100.78v22.4h-80.32V337.25q0-27.79-10.81-40.54T4047.27,284q-42.48,0-42.48,51.74a102,102,0,0,0,15.83,54.83q15.83,25.48,57.54,61.78,53.28,46.35,73.37,84.18t20.08,88.82q0,66.42-32.83,101.94t-95.37,35.53Q4011.61,762.79,3980,727.65Z"/><path d="M4250.26,214.46h84.95V677.83H4475v77.23H4250.26Z"/><path d="M4515.92,214.46h84.95V677.83h139.79v77.23H4515.92Z"/><path d="M4805.14,728q-32.05-34.75-32.05-98.08V339.57q0-63.31,32.05-98.08t93.06-34.75q61,0,93.06,34.75t32.05,98.08v57.15H4943V334.16q0-50.19-42.47-50.19T4858,334.16v302q0,49.44,42.48,49.43T4943,636.13V553.49h80.32V630q0,63.33-32.05,98.08t-93.06,34.76Q4837.18,762.79,4805.14,728Z"/><path d="M310.67,254.09S298.2,202,234,186.14,192,320.89,192,320.89l20.86-12.62s-11.13-75.25,2.78-94.6,72.33,39.26,72.33,39.26-41-27.77-53.9-15.38,12.83,41.71,12.83,41.71Z"/><path d="M295.6,331.46s-30.25,4.61-53.66,41.35-22,89.55-40.71,119.8c0,0,27.66-13,39.28-53.81S295.6,331.46,295.6,331.46Z"/><path d="M304.51,295.48s-43.44-8.3-70.35,22.47-37,53.06-45.88,86.42-31.08,61.49-31.08,61.49,49-34.73,66.9-83.59S277.21,296.06,304.51,295.48Z"/><path d="M242.47,490.76s-25.24,53.69-14,139.87c0,0,7-46.14,22.36-69,0,0-10,51,4.91,78.89s29.7,96.61,24.34,132.76c0,0,23.77-115.9,2.84-167.48,0,0,15.49,26.92,20.93,51.58,0,0,8.37-58.9-39.14-104.49C240.26,524.85,242.47,490.76,242.47,490.76Z"/><path d="M183,480.76s-34.15,65.47-25.82,125.29,54.23,75.11,59.79,121-7,97.37-7,97.37S260.76,717.62,234.7,666.7,182.44,615.78,183,567.1,183,480.76,183,480.76Z"/><path d="M204.21,320.89s-71,34.06-74.85,83.48-43.12,90.4-39,141.86,43.66,63.56,55.22,113.85c0,0-25.66-66.55-23.74-113.85S168,450.12,165.38,423.06,184.91,354.48,204.21,320.89Z"/><path d="M249.47,683.94s7.45,55.64,0,94.59,26,74.57,46.81,86,50.08,43.08,54.25,66.19c0,0-5.8-68.7-46-97.91S276.39,739.58,249.47,683.94Z"/><path d="M313.66,699.93s-14.6,65.73,0,88.85S370,817.48,400.6,855s26.14,77.05,26.14,77.05,21-40.29-11.79-90.19-75-36.35-89.19-83.76S313.66,699.93,313.66,699.93Z"/><path d="M176.66,203.5s-33.91-4.58-64,30.67S100.15,305,62.59,333.1,0,369.42,0,369.42s57.34,7.45,90.1-31.83,19.3-74.25,43.43-100C155.89,213.67,176.66,203.5,176.66,203.5Z"/><path d="M167.76,259.69s-39.82,18.94-55.66,61.2-41.16,43.16-53.68,83.48,11.13,61.18,9.74,93.18c0,0,15-17.45,20.17-81.06s43.24-52.48,58.83-95.6S167.76,259.69,167.76,259.69Z"/><path d="M552.1,420.26c29.21-15.64,41.66-19.1,75.78-20.16,27.16-.85,55.22,19.06,65.51,27.2-4.77-5-13.3-16.92-23.42-44.48-15.66-42.66-73.17-60-73.17-60s3.29-13.15,20-15.24,43.82-2.08,43.82-2.08c-17.74-3.13-36.52-25-53.36-20.87s-63.48,31.62-63.48,31.62c-2.09-29.93,46.45-81.81,46.45-81.81-77.69,24.91-83.12,80.28-83.12,80.28-5.37-20,6.72-64.51,6.72-64.51-20.14,10.36-30.15,24.45-35,37.11-4.88-12.66-14.89-26.75-35-37.11,0,0,12.09,44.53,6.72,64.51,0,0-5.42-55.37-83.12-80.28,0,0,48.55,51.88,46.46,81.81,0,0-46.64-27.44-63.49-31.62S314.71,302.38,297,305.51c0,0,27.12,0,43.81,2.08s20,15.24,20,15.24-57.5,17.33-73.17,60c-10.12,27.56-18.65,39.49-23.42,44.48,10.3-8.14,38.35-28.05,65.52-27.2,34.11,1.06,46.56,4.52,75.77,20.16,0,0,17.51-2.75,21.27-30.06,0,0,12.12,20.62-9.79,57.68s-29.84,55.89-29.84,55.89-6.69-20.25,17.32-55.89c0,0-39.64,16.2-69.9,6.81S304.28,434.87,290.72,438s-21.21,27.22-18.78,42.77,25,35.47,18.78,67.81a69.26,69.26,0,0,0,12.81-24.34c1.77,16.53,9,35.09,32.05,37.91,37.54,4.57,16.41-53.54,104.34-67.82.05,1.34-46.49,8-68.13,48.37-26.46,49.36-.66,102.57,67.3,97,0,0,28.5,2.61,23.39-37.47,0,0-47.14-9.83-49.23-28.61-1.62-14.64,15.36-1.08,43.15,3.94a14.77,14.77,0,0,0,6.17,1.75,83.74,83.74,0,0,0,9.1.05,83.94,83.94,0,0,0,9.11-.05,14.77,14.77,0,0,0,6.17-1.75c27.79-5,46.34-19.63,44.71-5-2.09,18.78-42.56,29.65-42.56,29.65-5.12,40.08,23.38,37.47,23.38,37.47,68,5.57,94.7-48.15,67.3-97-23.08-41.16-68.18-47-68.13-48.37,90.93,14.28,69.8,72.39,104.35,67.82,23-2.82,30.28-21.38,32-37.91a69.18,69.18,0,0,0,12.82,24.34c-6.26-32.34,16.35-52.25,18.78-67.81s-5.22-39.64-18.78-42.77S653.3,445.3,623,454.69s-69.9-6.81-69.9-6.81c24,35.64,17.32,55.89,17.32,55.89s-7.93-18.82-29.83-55.89-9.8-57.68-9.8-57.68C534.6,417.51,552.1,420.26,552.1,420.26Z"/><path d="M551.91,652.75c-17.78,2.63-54.1,4.82-73.12,5.84-19-1-55.34-3.21-73.13-5.84a78.31,78.31,0,0,0-44,6.46c11.47,43.81,9.92,36.35,20.69,62.04s15.82,57.33,15.82,57.33l21.44-43.53c19.35,26.84,25.71,68.26,25.71,68.26,9.42-9.79,13.19-25.37,14.67-37.23,3.06,6.04,6.14,12.45,9,18.78,0,0,11.46,30.75,12,33.31l7.61-33.31c2.85-6.33,5.93-12.71,9-18.78,1.49,11.86,5.25,27.44,14.68,37.23,0,0,6.35-41.42,25.7-68.26l21.44,43.53s2.57-38.41,13.34-64.12,11.7-11.47,23.18-55.28A78.36,78.36,0,0,0,551.91,652.75Z"/><path d="M646.91,254.09s12.47-52.09,76.63-68,42.08,134.75,42.08,134.75l-20.87-12.62S755.88,233,742,213.67s-72.33,39.26-72.33,39.26,41-27.77,53.9-15.38-12.83,41.71-12.83,41.71Z"/><path d="M653.04,320.89s30.44,3.08,55.68,38.58,26.51,88.33,46.73,117.59c0,0-28.29-11.56-42-51.75S653.04,320.89,653.04,320.89Z"/><path d="M653.04,295.48s43.44-8.3,70.34,22.47,37,53.06,45.88,86.42,31.08,61.49,31.08,61.49-49-34.73-66.89-83.59S680.37,296.06,653.04,295.48Z"/><path d="M715.26,490.92s25.24,53.69,14,139.87c0,0-7-46.14-22.36-69,0,0,10,51-4.91,78.88s-29.7,96.62-24.34,132.77c0,0-23.77-115.9-2.84-167.48,0,0-15.49,26.92-20.93,51.58,0,0-8.37-58.9,39.14-104.49C717.47,525,715.26,490.92,715.26,490.92Z"/><path d="M774.55,480.76s34.15,65.47,25.82,125.29-54.23,75.11-59.79,121,6.95,97.37,6.95,97.37S696.82,717.62,722.87,666.7s52.27-50.92,51.68-99.6S774.55,480.76,774.55,480.76Z"/><path d="M753.36,320.89s71,34.06,74.85,83.48,43.12,90.4,38.95,141.86S823.5,609.79,812,660.08c0,0,25.65-66.55,23.74-113.85s-46.12-96.11-43.49-123.17S772.66,354.48,753.36,320.89Z"/><path d="M708.1,683.94s-7.44,55.64,0,94.59-25.94,74.57-46.81,86-50.04,43.08-54.24,66.19c0,0,5.8-68.7,46-97.91S681.18,739.58,708.1,683.94Z"/><path d="M643.91,699.93s14.61,65.73,0,88.85S587.57,817.48,557,855s-26.14,77.05-26.14,77.05-21-40.29,11.79-90.19,75-36.35,89.19-83.76S643.91,699.93,643.91,699.93Z"/><path d="M780.92,203.5s33.9-4.58,64,30.67S857.42,305,895,333.1s62.59,36.32,62.59,36.32-57.33,7.45-90.1-31.83-19.3-74.25-43.43-100C801.68,213.67,780.92,203.5,780.92,203.5Z"/><path d="M789.81,259.69s39.82,18.94,55.67,61.2,41.15,43.16,53.67,83.48-11.13,61.18-9.73,93.18c0,0-15-17.45-20.17-81.06S826,364,810.42,320.89,789.81,259.69,789.81,259.69Z"/><path d="M667,98.6,643.08,239.32C600.52,224,542.76,214.6,479.18,214.6S357.91,224,315.31,239.28l-24-140.68L348.09,151l-15,23.9,10.6,9.48a24.21,24.21,0,0,0,36.4-4.85L382,176.6a24.18,24.18,0,0,0,1.23-24.42l-13.52-26L390,87.81l29.28,34.61-7.17,24.64a24.23,24.23,0,0,0,46.26,14.38l8.28-25.05L426.27,54.55,479.18,0l52.94,54.55-40.36,81.84,8.29,25.05a24.23,24.23,0,0,0,46.26-14.38l-7.17-24.64,29.27-34.61,20.31,38.35-13.51,26a24.22,24.22,0,0,0,1.19,24.42l1.9,2.91a24.25,24.25,0,0,0,36.44,4.85l10.61-9.48L610.3,151Z"/><path d="M354.89,240.58l17.65,20.31a392.23,392.23,0,0,0-50.36,12.85l-4.48-22.51A355.37,355.37,0,0,1,354.89,240.58Z"/><path d="M479.18,227.38a597,597,0,0,1,87.88,6.31L537,254.06q-7.83-.75-15.87-1.29V239.32L499.56,251.7q-10.08-.31-20.38-.32t-20.11.32L436.8,239.32l2.66,13.31q-8.19.51-16.18,1.25l-22.13-21.57A603.72,603.72,0,0,1,479.18,227.38Z"/><path d="M641.14,251.38l-3.7,22.77a385.48,385.48,0,0,0-48.26-12.61L602,240.23A358.21,358.21,0,0,1,641.14,251.38Z"/></g></g></svg>